<svg xmlns="http://www.w3.org/2000/svg" viewBox="5.000002384185791 5.000002384185791 290 290"><g clip-path="url(#__lottie_element_25)"><g transform="matrix(1,0,0,1,150,150)" opacity="1" style="display: block;"><g opacity="1" transform="matrix(1,0,0,1,0,0)"><path fill="rgb(4,5,6)" fill-opacity="1" d=" M125,-145 C136.03799438476562,-145 145,-136.03799438476562 145,-125 C145,-125 145,125 145,125 C145,136.03799438476562 136.03799438476562,145 125,145 C125,145 -125,145 -125,145 C-136.03799438476562,145 -145,136.03799438476562 -145,125 C-145,125 -145,-125 -145,-125 C-145,-136.03799438476562 -136.03799438476562,-145 -125,-145 C-125,-145 125,-145 125,-145z"></path></g></g><g clip-path="url(#__lottie_element_28)" transform="matrix(1.3183066844940186,0,0,1.3183066844940186,31.352405548095703,31.352405548095703)" opacity="1" style="display: block;"><g mask="url(#__lottie_element_38_1)" style="display: block;"><g transform="matrix(0.699999988079071,0,0,0.699999988079071,90.47529602050781,119.26349639892578)" opacity="1"><g opacity="1" transform="matrix(1,0,0,1,0,0)"><path fill="rgb(255,255,255)" fill-opacity="1" d=" M-0.8220000267028809,-5.046999931335449 C-0.8220000267028809,-5.046999931335449 -0.8220000267028809,-42.84299850463867 -0.8220000267028809,-42.84299850463867 C-0.8220000267028809,-42.84299850463867 -0.8140000104904175,-42.83599853515625 -0.8140000104904175,-42.83599853515625 C-0.8140000104904175,-42.83599853515625 40.029998779296875,-42.83599853515625 40.029998779296875,-42.83599853515625 C40.029998779296875,-42.83599853515625 89.04299926757812,-4.0929999351501465 89.04299926757812,-4.0929999351501465 C89.04299926757812,-4.0929999351501465 89.04299926757812,42.84299850463867 89.04299926757812,42.84299850463867 C89.04299926757812,42.84299850463867 50.904998779296875,42.84299850463867 50.904998779296875,42.84299850463867 C50.904998779296875,42.84299850463867 50.904998779296875,20.55900001525879 50.904998779296875,20.55900001525879 C35.58599853515625,34.749000549316406 15.241000175476074,42.77399826049805 -5.88700008392334,42.77399826049805 C-17.10300064086914,42.77399826049805 -28,40.590999603271484 -38.262001037597656,36.2859992980957 C-48.16699981689453,32.12699890136719 -57.055999755859375,26.19300079345703 -64.68800354003906,18.628999710083008 C-72.31199645996094,11.0649995803833 -78.30799865722656,2.25600004196167 -82.49600219726562,-7.559999942779541 C-86.83999633789062,-17.738000869750977 -89.04299926757812,-28.5310001373291 -89.04299926757812,-39.645999908447266 C-89.04299926757812,-39.645999908447266 -89.04299926757812,-42.33599853515625 -89.04299926757812,-42.33599853515625 C-89.04299926757812,-42.33599853515625 -48.724998474121094,-42.33599853515625 -48.724998474121094,-42.33599853515625 C-48.724998474121094,-42.33599853515625 -48.724998474121094,-39.645999908447266 -48.724998474121094,-39.645999908447266 C-48.724998474121094,-16.23900032043457 -29.5049991607666,2.809999942779541 -5.88700008392334,2.809999942779541 C3.1410000324249268,2.809999942779541 11.75,0.05700000002980232 18.95599937438965,-5.046999931335449 C18.95599937438965,-5.046999931335449 -0.8220000267028809,-5.046999931335449 -0.8220000267028809,-5.046999931335449z"></path></g></g></g><g mask="url(#__lottie_element_32_1)" style="display: block;"><g transform="matrix(0.699999988079071,0,0,0.699999988079071,90,57.06079864501953)" opacity="1"><g opacity="1" transform="matrix(1,0,0,1,0,0)"><path fill="rgb(255,255,255)" fill-opacity="1" d=" M0.9769999980926514,5.145999908447266 C0.9769999980926514,5.145999908447266 0.9769999980926514,42.93600082397461 0.9769999980926514,42.93600082397461 C0.9769999980926514,42.93600082397461 0.9769999980926514,42.94300079345703 0.9769999980926514,42.94300079345703 C0.9769999980926514,42.94300079345703 -39.867000579833984,42.94300079345703 -39.867000579833984,42.94300079345703 C-39.867000579833984,42.94300079345703 -88.87999725341797,4.192999839782715 -88.87999725341797,4.192999839782715 C-88.87999725341797,4.192999839782715 -88.87999725341797,-42.94300079345703 -88.87999725341797,-42.94300079345703 C-88.87999725341797,-42.94300079345703 -50.742000579833984,-42.94300079345703 -50.742000579833984,-42.94300079345703 C-50.742000579833984,-42.94300079345703 -50.742000579833984,-20.71299934387207 -50.742000579833984,-20.71299934387207 C-47.266998291015625,-23.902999877929688 -43.52000045776367,-26.792999267578125 -39.54899978637695,-29.35300064086914 C-26.069000244140625,-38.03900146484375 -10.409000396728516,-42.62799835205078 5.723999977111816,-42.62799835205078 C16.940000534057617,-42.62799835205078 27.836999893188477,-40.44499969482422 38.090999603271484,-36.132999420166016 C47.99599838256836,-31.989999771118164 56.8849983215332,-26.047000885009766 64.51699829101562,-18.482999801635742 C72.14900207519531,-10.918999671936035 78.1449966430664,-2.109999895095825 82.33300018310547,7.705999851226807 C86.677001953125,17.884000778198242 88.87999725341797,28.677000045776367 88.87999725341797,39.79199981689453 C88.87999725341797,39.79199981689453 88.87999725341797,42.481998443603516 88.87999725341797,42.481998443603516 C88.87999725341797,42.481998443603516 48.5620002746582,42.481998443603516 48.5620002746582,42.481998443603516 C48.5620002746582,42.481998443603516 48.5620002746582,39.79199981689453 48.5620002746582,39.79199981689453 C48.5620002746582,16.385000228881836 29.341999053955078,-2.6640000343322754 5.723999977111816,-2.6640000343322754 C-2.5910000801086426,-2.6640000343322754 -10.649999618530273,-0.3109999895095825 -17.576000213623047,4.15500020980835 C-18.07200050354004,4.46999979019165 -18.569000244140625,4.808000087738037 -19.049999237060547,5.145999908447266 C-19.049999237060547,5.145999908447266 0.9769999980926514,5.145999908447266 0.9769999980926514,5.145999908447266z"></path></g></g></g></g></g></svg>